<svg width="26" height="31" viewBox="0 0 26 31" fill="none" xmlns="http://www.w3.org/2000/svg">
<path d="M21.7144 16.4379C21.7593 21.1203 25.9536 22.6785 26 22.6984C25.9645 22.8082 25.3298 24.9189 23.7903 27.099C22.4595 28.9839 21.0781 30.8618 18.9021 30.9007C16.7642 30.9389 16.0767 29.6722 13.6323 29.6722C11.1886 29.6722 10.4247 30.8618 8.40077 30.9389C6.30046 31.0159 4.70105 28.9008 3.35921 27.0227C0.617019 23.1814 -1.47852 16.1678 1.33527 11.4336C2.73307 9.08251 5.23121 7.59382 7.94252 7.55563C10.0049 7.51755 11.9517 8.90015 13.2125 8.90015C14.4725 8.90015 16.8382 7.23747 19.3251 7.48163C20.3662 7.52365 23.2887 7.88906 25.1653 10.5507C25.014 10.6416 21.6781 12.5233 21.7144 16.438M17.6963 4.94022C18.8114 3.63231 19.5619 1.81168 19.3571 0C17.7498 0.0625905 15.8063 1.03786 14.6534 2.34498C13.6202 3.50261 12.7153 5.35532 12.9595 7.13108C14.7511 7.26542 16.5811 6.24891 17.6963 4.94022Z" fill="black"/>
</svg>
