<svg width="24" height="24" viewBox="0 0 24 24" fill="none" xmlns="http://www.w3.org/2000/svg">
<path d="M11.948 9.171L10.534 7.757L6.29004 12L10.533 16.243L11.947 14.828L10.12 13L17.657 13L17.657 11L10.12 11L11.948 9.171Z" fill="black"/>
<path fill-rule="evenodd" clip-rule="evenodd" d="M4.222 4.222C-0.0739995 8.518 -0.0739992 15.482 4.222 19.778C8.518 24.074 15.482 24.074 19.778 19.778C24.074 15.482 24.074 8.518 19.778 4.222C15.482 -0.073999 8.518 -0.0739987 4.222 4.222ZM5.636 5.636C3.94816 7.32384 2.99995 9.61304 2.99995 12C2.99995 14.387 3.94816 16.6762 5.636 18.364C7.32384 20.0518 9.61304 21.0001 12 21.0001C14.387 21.0001 16.6762 20.0518 18.364 18.364C20.0518 16.6762 21.0001 14.387 21.0001 12C21.0001 9.61304 20.0518 7.32384 18.364 5.636C16.6762 3.94816 14.387 2.99995 12 2.99995C9.61304 2.99995 7.32384 3.94816 5.636 5.636Z" fill="black"/>
</svg>
